#Comment line ignore any data following # character 
#Hierarchical Translation and Rotation (.htr) file 
[Header]	
#Header keywords are followed by a single value 
FileType HTR		#Single word string
DataType HTRS		#Translation followed by rotation and scale data
FileVersion 1		#integer
NumSegments 84		#integer
NumFrames 2		#integer
DataFrameRate 30		#integer, data frame rate in this file
EulerRotationOrder ZYX
CalibrationUnits mm
RotationUnits Degrees
GlobalAxisofGravity Y
BoneLengthAxis Y
ScaleFactor 1.00
[SegmentNames&Hierarchy]
#CHILD	PARENT
MASTER GLOBAL
root MASTER
chest root
L_mid_tent01 root
R_mid_tent01 root
spine01 root
Bip01_Neck chest
L_humerus chest
R_humerus chest
weapon_bone chest
Bip01_Head Bip01_Neck
eye_left_bone Bip01_Head
eye_right_bone Bip01_Head
L_forearm L_humerus
L_front_hand L_forearm
L_weapon_bone L_forearm
L_front_hand01_01 L_front_hand
L_front_hand02_01 L_front_hand
L_front_hand03_01 L_front_hand
L_front_hand01_02 L_front_hand01_01
L_front_hand02_02 L_front_hand02_01
L_front_hand03_02 L_front_hand03_01
R_forearm R_humerus
R_front_hand R_forearm
R_weapon_bone R_forearm
R_front_hand01_01 R_front_hand
R_front_hand02_01 R_front_hand
R_front_hand03_01 R_front_hand
R_front_hand01_02 R_front_hand01_01
R_front_hand02_02 R_front_hand02_01
R_front_hand03_02 R_front_hand03_01
null_rope01_connect L_mid_tent01
Rope1_Seg01 null_rope01_connect
Rope1_Seg02 Rope1_Seg01
Rope1_Seg03 Rope1_Seg02
Rope1_Seg04 Rope1_Seg03
Rope1_Seg05 Rope1_Seg04
Rope1_Seg06 Rope1_Seg05
Rope1_Seg07 Rope1_Seg06
Rope1_Seg09 Rope1_Seg07
L_mid_hand01 Rope1_Seg09
L_mid_hand02 Rope1_Seg09
L_mid_hand03 Rope1_Seg09
null_rope02_connect R_mid_tent01
Rope2_Seg01 null_rope02_connect
Rope2_Seg02 Rope2_Seg01
Rope2_Seg03 Rope2_Seg02
Rope2_Seg04 Rope2_Seg03
Rope2_Seg05 Rope2_Seg04
Rope2_Seg06 Rope2_Seg05
Rope2_Seg07 Rope2_Seg06
Rope2_Seg09 Rope2_Seg07
R_mid_hand01 Rope2_Seg09
R_mid_hand02 Rope2_Seg09
R_mid_hand03 Rope2_Seg09
spine02 spine01
spine03 spine02
pelvis spine03
null_rope03_connect pelvis
null_rope04_connect pelvis
Rope3_Seg01 null_rope03_connect
Rope3_Seg02 Rope3_Seg01
Rope3_Seg03 Rope3_Seg02
Rope3_Seg04 Rope3_Seg03
Rope3_Seg05 Rope3_Seg04
Rope3_Seg06 Rope3_Seg05
Rope3_Seg07 Rope3_Seg06
Rope3_Seg08 Rope3_Seg07
Rope3_Seg09 Rope3_Seg08
R_rear_hand01 Rope3_Seg09
R_rear_hand02 Rope3_Seg09
R_rear_hand03 Rope3_Seg09
Rope4_Seg01 null_rope04_connect
Rope4_Seg02 Rope4_Seg01
Rope4_Seg03 Rope4_Seg02
Rope4_Seg04 Rope4_Seg03
Rope4_Seg05 Rope4_Seg04
Rope4_Seg06 Rope4_Seg05
Rope4_Seg07 Rope4_Seg06
Rope4_Seg08 Rope4_Seg07
Rope4_Seg09 Rope4_Seg08
L_rear_hand01 Rope4_Seg09
L_rear_hand02 Rope4_Seg09
L_rear_hand03 Rope4_Seg09
[BasePosition]
#SegmentName Tx, Ty, Tz, Rx, Ry, Rz, BoneLength
MASTER 0.000000 0.000000 0.000000 -90.000000 0.000000 0.000000 10.000000 
root 0.000000 0.000000 0.000000 0.000000 0.000000 0.000000 10.000000 
chest 0.000000 0.000000 0.000000 0.000000 0.000000 0.000000 10.000000 
L_mid_tent01 0.000000 0.000000 0.000000 0.000000 0.000000 0.000000 10.000000 
R_mid_tent01 0.000000 0.000000 0.000000 0.000000 0.000000 0.000000 10.000000 
spine01 0.000000 0.000000 0.000000 0.000000 0.000000 0.000000 10.000000 
Bip01_Neck 0.000000 0.000000 0.000000 0.000000 0.000000 0.000000 10.000000 
L_humerus 0.000000 0.000000 0.000000 0.000000 0.000000 0.000000 10.000000 
R_humerus 0.000000 0.000000 0.000000 0.000000 0.000000 0.000000 10.000000 
weapon_bone 0.000000 0.000000 0.000000 0.000000 0.000000 0.000000 10.000000 
Bip01_Head 0.000000 0.000000 0.000000 0.000000 0.000000 0.000000 10.000000 
eye_left_bone 0.000000 0.000000 0.000000 0.000000 0.000000 0.000000 10.000000 
eye_right_bone 0.000000 0.000000 0.000000 0.000000 0.000000 0.000000 10.000000 
L_forearm 0.000000 0.000000 0.000000 0.000000 0.000000 0.000000 10.000000 
L_front_hand 0.000000 0.000000 0.000000 0.000000 0.000000 0.000000 10.000000 
L_weapon_bone 0.000000 0.000000 0.000000 0.000000 0.000000 0.000000 10.000000 
L_front_hand01_01 0.000000 0.000000 0.000000 0.000000 0.000000 0.000000 10.000000 
L_front_hand02_01 0.000000 0.000000 0.000000 0.000000 0.000000 0.000000 10.000000 
L_front_hand03_01 0.000000 0.000000 0.000000 0.000000 0.000000 0.000000 10.000000 
L_front_hand01_02 0.000000 0.000000 0.000000 0.000000 0.000000 0.000000 10.000000 
L_front_hand02_02 0.000000 0.000000 0.000000 0.000000 0.000000 0.000000 10.000000 
L_front_hand03_02 0.000000 0.000000 0.000000 0.000000 0.000000 0.000000 10.000000 
R_forearm 0.000000 0.000000 0.000000 0.000000 0.000000 0.000000 10.000000 
R_front_hand 0.000000 0.000000 0.000000 0.000000 0.000000 0.000000 10.000000 
R_weapon_bone 0.000000 0.000000 0.000000 0.000000 0.000000 0.000000 10.000000 
R_front_hand01_01 0.000000 0.000000 0.000000 0.000000 0.000000 0.000000 10.000000 
R_front_hand02_01 0.000000 0.000000 0.000000 0.000000 0.000000 0.000000 10.000000 
R_front_hand03_01 0.000000 0.000000 0.000000 0.000000 0.000000 0.000000 10.000000 
R_front_hand01_02 0.000000 0.000000 0.000000 0.000000 0.000000 0.000000 10.000000 
R_front_hand02_02 0.000000 0.000000 0.000000 0.000000 0.000000 0.000000 10.000000 
R_front_hand03_02 0.000000 0.000000 0.000000 0.000000 0.000000 0.000000 10.000000 
null_rope01_connect 0.000000 0.000000 0.000000 0.000000 0.000000 0.000000 10.000000 
Rope1_Seg01 0.000000 0.000000 0.000000 0.000000 0.000000 0.000000 10.000000 
Rope1_Seg02 0.000000 0.000000 0.000000 0.000000 0.000000 0.000000 10.000000 
Rope1_Seg03 0.000000 0.000000 0.000000 0.000000 0.000000 0.000000 10.000000 
Rope1_Seg04 0.000000 0.000000 0.000000 0.000000 0.000000 0.000000 10.000000 
Rope1_Seg05 0.000000 0.000000 0.000000 0.000000 0.000000 0.000000 10.000000 
Rope1_Seg06 0.000000 0.000000 0.000000 0.000000 0.000000 0.000000 10.000000 
Rope1_Seg07 0.000000 0.000000 0.000000 0.000000 0.000000 0.000000 10.000000 
Rope1_Seg09 0.000000 0.000000 0.000000 0.000000 0.000000 0.000000 10.000000 
L_mid_hand01 0.000000 0.000000 0.000000 0.000000 0.000000 0.000000 10.000000 
L_mid_hand02 0.000000 0.000000 0.000000 0.000000 0.000000 0.000000 10.000000 
L_mid_hand03 0.000000 0.000000 0.000000 0.000000 0.000000 0.000000 10.000000 
null_rope02_connect 0.000000 0.000000 0.000000 0.000000 0.000000 0.000000 10.000000 
Rope2_Seg01 0.000000 0.000000 0.000000 0.000000 0.000000 0.000000 10.000000 
Rope2_Seg02 0.000000 0.000000 0.000000 0.000000 0.000000 0.000000 10.000000 
Rope2_Seg03 0.000000 0.000000 0.000000 0.000000 0.000000 0.000000 10.000000 
Rope2_Seg04 0.000000 0.000000 0.000000 0.000000 0.000000 0.000000 10.000000 
Rope2_Seg05 0.000000 0.000000 0.000000 0.000000 0.000000 0.000000 10.000000 
Rope2_Seg06 0.000000 0.000000 0.000000 0.000000 0.000000 0.000000 10.000000 
Rope2_Seg07 0.000000 0.000000 0.000000 0.000000 0.000000 0.000000 10.000000 
Rope2_Seg09 0.000000 0.000000 0.000000 0.000000 0.000000 0.000000 10.000000 
R_mid_hand01 0.000000 0.000000 0.000000 0.000000 0.000000 0.000000 10.000000 
R_mid_hand02 0.000000 0.000000 0.000000 0.000000 0.000000 0.000000 10.000000 
R_mid_hand03 0.000000 0.000000 0.000000 0.000000 0.000000 0.000000 10.000000 
spine02 0.000000 0.000000 0.000000 0.000000 0.000000 0.000000 10.000000 
spine03 0.000000 0.000000 0.000000 0.000000 0.000000 0.000000 10.000000 
pelvis 0.000000 0.000000 0.000000 0.000000 0.000000 0.000000 10.000000 
null_rope03_connect 0.000000 0.000000 0.000000 0.000000 0.000000 0.000000 10.000000 
null_rope04_connect 0.000000 0.000000 0.000000 0.000000 0.000000 0.000000 10.000000 
Rope3_Seg01 0.000000 0.000000 0.000000 0.000000 0.000000 0.000000 10.000000 
Rope3_Seg02 0.000000 0.000000 0.000000 0.000000 0.000000 0.000000 10.000000 
Rope3_Seg03 0.000000 0.000000 0.000000 0.000000 0.000000 0.000000 10.000000 
Rope3_Seg04 0.000000 0.000000 0.000000 0.000000 0.000000 0.000000 10.000000 
Rope3_Seg05 0.000000 0.000000 0.000000 0.000000 0.000000 0.000000 10.000000 
Rope3_Seg06 0.000000 0.000000 0.000000 0.000000 0.000000 0.000000 10.000000 
Rope3_Seg07 0.000000 0.000000 0.000000 0.000000 0.000000 0.000000 10.000000 
Rope3_Seg08 0.000000 0.000000 0.000000 0.000000 0.000000 0.000000 10.000000 
Rope3_Seg09 0.000000 0.000000 0.000000 0.000000 0.000000 0.000000 10.000000 
R_rear_hand01 0.000000 0.000000 0.000000 0.000000 0.000000 0.000000 10.000000 
R_rear_hand02 0.000000 0.000000 0.000000 0.000000 0.000000 0.000000 10.000000 
R_rear_hand03 0.000000 0.000000 0.000000 0.000000 0.000000 0.000000 10.000000 
Rope4_Seg01 0.000000 0.000000 0.000000 0.000000 0.000000 0.000000 10.000000 
Rope4_Seg02 0.000000 0.000000 0.000000 0.000000 0.000000 0.000000 10.000000 
Rope4_Seg03 0.000000 0.000000 0.000000 0.000000 0.000000 0.000000 10.000000 
Rope4_Seg04 0.000000 0.000000 0.000000 0.000000 0.000000 0.000000 10.000000 
Rope4_Seg05 0.000000 0.000000 0.000000 0.000000 0.000000 0.000000 10.000000 
Rope4_Seg06 0.000000 0.000000 0.000000 0.000000 0.000000 0.000000 10.000000 
Rope4_Seg07 0.000000 0.000000 0.000000 0.000000 0.000000 0.000000 10.000000 
Rope4_Seg08 0.000000 0.000000 0.000000 0.000000 0.000000 0.000000 10.000000 
Rope4_Seg09 0.000000 0.000000 0.000000 0.000000 0.000000 0.000000 10.000000 
L_rear_hand01 0.000000 0.000000 0.000000 0.000000 0.000000 0.000000 10.000000 
L_rear_hand02 0.000000 0.000000 0.000000 0.000000 0.000000 0.000000 10.000000 
L_rear_hand03 0.000000 0.000000 0.000000 0.000000 0.000000 0.000000 10.000000 
#Beginning of Data. Separated by tabs
#Fr	Tx	Ty	Tz	Rx	Ry	Rz	SF
[MASTER]
13 0.000000 0.000000 0.000000 0.001660 0.001660 0.001660 0.000000
14 0.000000 0.000000 0.000000 0.001660 0.001660 0.001660 0.000000
[root]
13 -2.643958 -15.992776 1464.415039 -91.706375 7.188744 -90.037125 1464.504761
14 -3.735129 -15.507085 1460.059937 -91.706375 7.188744 -90.037125 1460.146973
[chest]
13 -84.512650 -34.090519 0.000000 -2.117274 0.462005 -179.268204 91.129311
14 -84.512650 -34.090519 0.000000 -2.117274 0.462005 -179.268204 91.129311
[L_mid_tent01]
13 27.299511 22.177458 -249.918259 -11.212391 7.173965 46.128521 252.381134
14 27.299511 22.177458 -249.918259 -11.212391 7.173965 46.128521 252.381134
[R_mid_tent01]
13 23.228794 24.509907 226.238495 -173.453110 -7.865565 48.320805 228.744751
14 23.228794 24.509907 226.238495 -173.453110 -7.865566 48.320808 228.744751
[spine01]
13 -0.361383 -0.195265 0.000000 -0.000001 -0.000007 22.052340 0.410763
14 -0.361383 -0.195265 0.000000 -0.000001 -0.000007 22.052340 0.410763
[Bip01_Neck]
13 165.484543 71.581718 0.000119 175.896118 1.177290 24.871183 180.302734
14 165.484543 71.581718 0.000119 175.896118 1.177290 24.871183 180.302734
[L_humerus]
13 -13.983130 -135.272980 -120.471481 177.317520 0.814944 177.327347 181.680161
14 -13.983130 -135.272980 -120.471481 177.317520 0.814944 177.327347 181.680161
[R_humerus]
13 -13.983309 -135.273102 125.287651 -179.087967 -0.295690 175.068390 184.909012
14 -13.983309 -135.273102 125.287651 -179.087967 -0.295690 175.068390 184.909012
[weapon_bone]
13 235.964890 -300.705902 0.000000 0.000000 -89.951546 -128.212341 382.234833
14 235.964890 -300.705902 0.000000 0.000000 -89.951546 -128.212341 382.234833
[Bip01_Head]
13 97.775497 22.186661 5.309563 3.366012 3.339071 -18.399078 100.401627
14 97.775497 22.186661 5.309563 3.366013 3.339072 -18.399080 100.401627
[eye_left_bone]
13 -24.626970 125.451866 -64.772606 0.000000 -90.000000 -99.840431 143.318359
14 -24.626970 125.451866 -64.772606 0.000000 -90.000000 -99.840431 143.318359
[eye_right_bone]
13 -24.626970 125.451866 64.327362 0.000000 -89.965736 80.156380 143.117676
14 -24.626970 125.451866 64.327362 0.000000 -89.965736 80.156380 143.117676
[L_forearm]
13 322.776093 0.000000 -0.000119 0.001372 -0.001904 -161.553818 322.776093
14 322.776093 0.000000 -0.000119 0.001372 -0.001904 -161.553818 322.776093
[L_front_hand]
13 241.149185 -0.042021 -3.300071 -179.659958 -2.242151 -0.019832 241.171753
14 241.149185 -0.042021 -3.300071 -179.659958 -2.242151 -0.019832 241.171753
[L_weapon_bone]
13 156.183838 0.000000 0.000000 0.000014 0.000007 0.000001 156.183838
14 156.183838 0.000000 0.000000 0.000014 0.000007 0.000001 156.183838
[L_front_hand01_01]
13 86.095154 20.947098 -0.655860 0.405585 -0.442306 -4.620490 88.609184
14 86.095154 20.947098 -0.655860 0.405585 -0.442306 -4.620490 88.609184
[L_front_hand02_01]
13 86.935165 -11.437475 24.513514 116.959450 3.630818 1.495453 91.046425
14 86.935165 -11.437475 24.513514 116.959450 3.630817 1.495453 91.046425
[L_front_hand03_01]
13 86.637497 -14.123976 -20.424902 -118.419884 -4.660555 -0.155069 90.126129
14 86.637497 -14.123976 -20.424902 -118.419884 -4.660555 -0.155069 90.126129
[L_front_hand01_02]
13 71.020905 -0.000179 0.000030 0.000004 -0.000005 -8.379269 71.020905
14 71.020905 -0.000179 0.000030 0.000004 -0.000005 -8.379269 71.020905
[L_front_hand02_02]
13 71.020927 -0.000119 0.000060 -0.000005 -0.000004 -8.379259 71.020927
14 71.020927 -0.000119 0.000060 -0.000005 -0.000004 -8.379259 71.020927
[L_front_hand03_02]
13 71.020905 -0.000060 0.000060 0.000015 -0.000040 -8.379267 71.020905
14 71.020905 -0.000060 0.000060 0.000015 -0.000040 -8.379267 71.020905
[R_forearm]
13 322.776428 -0.000060 0.000030 0.066610 0.203476 -163.260239 322.776428
14 322.776428 -0.000060 0.000030 0.066610 0.203476 -163.260239 322.776428
[R_front_hand]
13 238.847015 -0.006795 2.210259 -0.270529 1.703932 2.322530 238.857239
14 238.847015 -0.006795 2.210259 -0.270529 1.703932 2.322530 238.857239
[R_weapon_bone]
13 155.664093 0.002503 -0.000030 0.003487 0.001180 -90.988930 155.664078
14 155.664093 0.002503 -0.000030 0.003487 0.001180 -90.988930 155.664078
[R_front_hand01_01]
13 87.624611 14.231146 22.918642 -116.960213 3.496675 -1.324139 91.683487
14 87.624611 14.231146 22.918642 -116.960213 3.496675 -1.324139 91.683487
[R_front_hand02_01]
13 89.356956 14.367283 -19.491137 118.419647 -4.257089 0.609827 92.579636
14 89.356956 14.367283 -19.491137 118.419647 -4.257089 0.609827 92.579636
[R_front_hand03_01]
13 87.286232 -22.307278 -0.143439 -0.387970 -0.231462 4.232001 90.091743
14 87.286232 -22.307278 -0.143439 -0.387970 -0.231462 4.232001 90.091743
[R_front_hand01_02]
13 71.020905 0.000060 0.000119 -0.000005 -0.000020 8.379271 71.020905
14 71.020905 0.000060 0.000119 -0.000005 -0.000020 8.379271 71.020905
[R_front_hand02_02]
13 71.020844 -0.000030 -0.000119 0.000000 -0.000021 8.379271 71.020836
14 71.020844 -0.000030 -0.000119 0.000000 -0.000021 8.379271 71.020836
[R_front_hand03_02]
13 71.020905 0.000000 0.000030 -0.000001 -0.000020 8.379275 71.020905
14 71.020905 0.000000 0.000030 -0.000001 -0.000020 8.379275 71.020905
[null_rope01_connect]
13 328.732483 0.000000 -0.000238 160.552872 -75.066147 -124.625038 328.732483
14 328.732483 0.000000 -0.000238 160.552872 -75.066147 -124.625038 328.732483
[Rope1_Seg01]
13 0.000000 0.000000 0.000000 -127.934456 51.628696 -118.158356 0.000000
14 0.000000 0.000000 0.000000 -131.402802 51.412258 -119.904724 0.000000
[Rope1_Seg02]
13 139.999863 -0.000179 0.000000 44.625114 -11.333676 -19.128962 139.999863
14 139.999863 -0.000179 0.000000 46.173313 -10.361367 -19.746912 139.999863
[Rope1_Seg03]
13 139.999924 0.000060 -0.000060 20.684599 -15.876187 -4.628848 139.999924
14 139.999924 0.000060 -0.000060 22.257751 -15.787617 -5.244302 139.999924
[Rope1_Seg04]
13 139.999924 -0.000060 -0.000119 7.864368 -11.628335 0.863966 139.999924
14 139.999924 -0.000060 -0.000119 8.520392 -11.682220 0.589115 139.999924
[Rope1_Seg05]
13 139.999832 0.000119 -0.000060 -0.127020 0.224162 -0.048046 139.999832
14 139.999832 0.000119 -0.000060 -0.210892 0.046685 0.278532 139.999832
[Rope1_Seg06]
13 139.999954 0.000119 -0.000060 -7.285060 10.308874 -2.213816 139.999954
14 139.999954 0.000119 -0.000060 -7.579768 9.770242 -1.174405 139.999954
[Rope1_Seg07]
13 139.999985 0.000060 0.000000 -29.217566 21.975098 -1.990575 139.999985
14 139.999985 0.000060 0.000000 -25.379063 19.739775 0.097264 139.999985
[Rope1_Seg09]
13 121.602913 0.000119 -0.000089 -89.793175 -1.359789 0.847147 121.602913
14 121.602913 0.000119 -0.000089 -89.793175 -1.359789 0.847147 121.602913
[L_mid_hand01]
13 103.859421 1.038730 8.195221 106.855484 -31.239275 -9.461397 104.187431
14 103.859421 1.038730 8.195221 106.855484 -31.239275 -9.461397 104.187431
[L_mid_hand02]
13 105.572853 -4.139662 -10.864139 -142.331345 25.752670 -28.774628 106.211075
14 105.572853 -4.139662 -10.864139 -142.331345 25.752670 -28.774628 106.211075
[L_mid_hand03]
13 104.641464 17.579376 -3.913581 -16.122810 9.734291 34.223598 106.179977
14 104.641464 17.579376 -3.913581 -16.122810 9.734291 34.223598 106.179977
[null_rope02_connect]
13 328.732849 0.000179 -0.000119 174.610336 81.478409 -39.424759 328.732849
14 328.732849 0.000179 -0.000119 174.610336 81.478409 -39.424759 328.732849
[Rope2_Seg01]
13 0.000076 0.000110 0.000153 150.293533 48.761467 -76.085327 0.000203
14 0.000076 0.000110 0.000153 153.678848 48.945675 -73.496254 0.000203
[Rope2_Seg02]
13 139.999741 -0.000060 -0.000119 -11.057374 2.786671 9.889477 139.999756
14 139.999741 -0.000060 -0.000119 -12.252161 3.397200 10.251539 139.999756
[Rope2_Seg03]
13 140.000107 0.000030 0.000000 -12.223166 0.609639 14.404461 140.000107
14 140.000107 0.000030 0.000000 -13.530910 2.114922 14.229756 140.000107
[Rope2_Seg04]
13 139.999802 0.000000 -0.000060 -1.872356 0.876188 2.050137 139.999802
14 139.999802 0.000000 -0.000060 -2.626848 -2.025913 4.195241 139.999802
[Rope2_Seg05]
13 139.999985 -0.000060 0.000119 1.326734 1.070856 -2.192096 139.999985
14 139.999985 -0.000060 0.000119 1.196492 -0.661989 -1.340714 139.999985
[Rope2_Seg06]
13 139.999893 -0.000030 -0.000119 0.001250 0.258839 -0.181326 139.999893
14 139.999893 -0.000030 -0.000119 -0.063108 -0.329610 0.165049 139.999893
[Rope2_Seg07]
13 139.999893 0.000060 -0.000060 -0.018277 0.159904 -0.112116 139.999893
14 139.999893 0.000060 -0.000060 -0.062810 -0.201060 0.100685 139.999893
[Rope2_Seg09]
13 121.338966 0.000089 -0.000060 33.793236 -1.359788 -0.847141 121.338966
14 121.338966 0.000089 -0.000060 33.793236 -1.359788 -0.847141 121.338966
[R_mid_hand01]
13 104.680779 11.144459 -10.335981 -41.523792 25.424656 28.595957 105.778534
14 104.680779 11.144459 -10.335981 -41.523792 25.424656 28.595957 105.778534
[R_mid_hand02]
13 104.070427 2.443552 8.231699 72.847389 -32.746803 10.013901 104.424065
14 104.070427 2.443552 8.231699 72.847389 -32.746803 10.013901 104.424065
[R_mid_hand03]
13 106.028137 -11.221827 -5.996406 -167.901306 10.259192 -37.009720 106.788818
14 106.028137 -11.221827 -5.996406 -167.901306 10.259192 -37.009720 106.788818
[spine02]
13 129.756927 0.001550 0.000119 0.360061 -4.044797 -12.915058 129.756927
14 129.756927 0.001550 0.000119 0.360061 -4.044797 -12.915058 129.756927
[spine03]
13 78.613846 0.087372 -4.898873 1.896495 3.831288 16.473045 78.766380
14 78.613846 0.087372 -4.898873 1.896495 3.831288 16.473045 78.766380
[pelvis]
13 169.435242 0.051022 0.000000 -0.060465 -0.180225 14.087930 169.435257
14 169.435242 0.051022 0.000000 -0.060465 -0.180225 14.087930 169.435257
[null_rope03_connect]
13 -1.257226 -2.466202 137.391083 -168.629776 -89.386429 -148.244614 137.418976
14 -1.257226 -2.466202 137.391083 -168.629776 -89.386429 -148.244614 137.418976
[null_rope04_connect]
13 -1.259640 -2.480268 -137.844437 -168.629776 -89.386429 -148.244614 137.872513
14 -1.259640 -2.480268 -137.844437 -168.629776 -89.386429 -148.244614 137.872513
[Rope3_Seg01]
13 0.000000 0.000000 0.000000 -134.817398 25.906441 -84.283440 0.000000
14 0.000000 0.000000 0.000000 -136.050552 26.691841 -86.896416 0.000000
[Rope3_Seg02]
13 139.999924 -0.000119 0.000060 1.063450 4.043661 -2.593884 139.999924
14 139.999924 -0.000119 0.000060 1.172948 3.225503 -3.582830 139.999924
[Rope3_Seg03]
13 139.999924 -0.000119 0.000119 1.442035 5.783474 -4.547317 139.999924
14 139.999924 -0.000119 0.000119 1.386972 4.452616 -5.921512 139.999924
[Rope3_Seg04]
13 139.999924 0.000119 0.000000 1.299405 10.716769 -14.055658 139.999924
14 139.999924 0.000119 0.000000 0.568042 7.351747 -16.953522 139.999924
[Rope3_Seg05]
13 139.999924 -0.000238 0.000060 -1.371048 2.491428 17.278606 139.999924
14 139.999924 -0.000238 0.000060 -0.080016 4.706409 17.129251 139.999924
[Rope3_Seg06]
13 139.999893 -0.000119 -0.000060 -5.075405 -1.331451 15.364738 139.999893
14 139.999893 -0.000119 -0.000060 -3.707581 1.209666 17.243973 139.999893
[Rope3_Seg07]
13 139.999771 0.000060 -0.000119 -2.189396 -0.319182 6.015696 139.999771
14 139.999771 0.000060 -0.000119 -1.751624 0.697023 6.588143 139.999771
[Rope3_Seg08]
13 139.999985 -0.000060 0.000000 -1.279007 -0.307038 3.373808 139.999985
14 139.999985 -0.000060 0.000000 -1.053448 0.273068 3.684490 139.999985
[Rope3_Seg09]
13 90.185997 -0.000179 -0.000060 89.793228 -1.359877 -0.847183 90.185997
14 90.185997 -0.000179 -0.000060 89.793228 -1.359877 -0.847183 90.185997
[R_rear_hand01]
13 103.366196 -6.073594 -10.757982 -161.551193 16.666374 -30.088671 104.101845
14 103.366196 -6.073594 -10.757982 -161.551193 16.666374 -30.088671 104.101845
[R_rear_hand02]
13 100.509819 12.039542 -7.992327 -34.280552 19.289745 28.875523 101.543350
14 100.509819 12.039542 -7.992327 -34.280552 19.289745 28.875523 101.543350
[R_rear_hand03]
13 101.539970 5.215704 5.435467 83.366440 -30.933914 7.284830 101.819031
14 101.539970 5.215704 5.435467 83.366440 -30.933914 7.284830 101.819031
[Rope4_Seg01]
13 0.000010 0.000038 -0.000114 50.349804 16.806505 -89.920296 0.000121
14 0.000010 0.000038 -0.000114 49.498913 16.239758 -93.032066 0.000121
[Rope4_Seg02]
13 139.999985 0.000060 0.000119 1.488754 3.126500 -4.288191 139.999985
14 139.999985 0.000060 0.000119 1.175567 4.743698 -2.979509 139.999985
[Rope4_Seg03]
13 139.999924 0.000000 -0.000238 1.801420 4.168375 -4.576740 139.999924
14 139.999924 0.000000 -0.000238 1.704794 6.160914 -3.062294 139.999924
[Rope4_Seg04]
13 139.999985 0.000000 0.000119 2.986377 8.384400 -5.337469 139.999985
14 139.999985 0.000000 0.000119 3.348853 11.086098 -3.059003 139.999985
[Rope4_Seg05]
13 139.999802 -0.000060 -0.000119 0.027373 -7.637175 -3.058805 139.999802
14 139.999802 -0.000060 -0.000119 0.161905 -8.075356 -3.674347 139.999802
[Rope4_Seg06]
13 139.999924 0.000000 0.000060 -0.694975 -14.008666 -0.575677 139.999924
14 139.999924 0.000000 0.000060 -0.529658 -15.836407 -2.571365 139.999924
[Rope4_Seg07]
13 139.999802 0.000000 0.000000 0.220770 -6.211452 -1.025689 139.999802
14 139.999802 0.000000 0.000000 0.230117 -6.685943 -1.790381 139.999802
[Rope4_Seg08]
13 139.999924 0.000000 0.000119 -1.323541 -3.666565 -0.648776 139.999924
14 139.999924 0.000000 0.000119 -1.347317 -3.909385 -1.075775 139.999924
[Rope4_Seg09]
13 90.185791 0.000060 0.000060 -135.617828 2.228885 0.850567 90.185791
14 90.185791 0.000060 0.000060 -135.617828 2.228885 0.850567 90.185791
[L_rear_hand01]
13 101.696655 -8.392275 -7.654577 -34.454281 -18.946800 151.655121 102.329041
14 101.696655 -8.392275 -7.654577 -34.454281 -18.946800 151.655121 102.329041
[L_rear_hand02]
13 102.726799 -1.568258 5.773216 83.407906 30.330435 172.796509 102.900848
14 102.726799 -1.568258 5.773216 83.407906 30.330435 172.796509 102.900848
[L_rear_hand03]
13 104.552910 9.721220 -10.420293 -161.379868 -16.473232 -150.512238 105.519653
14 104.552910 9.721220 -10.420293 -161.379868 -16.473232 -150.512238 105.519653
